# xmcd
#
# Track frame offsets: 
#        150
#        31842
#        51455
#        73042
#        90962
#        107152
#        126295
#        140445
#        165202
#        185530
#        210537
#        234870
#        266085
#        287200
#
# Disc length: 4209 seconds
#
# Revision: 10
# Processed by: cddbd v1.5.2PL0 Copyright (c) Steve Scherf et al.
# Submitted via: ExactAudioCopy v1.0b6
#
DISCID=c4106f0e
DTITLE=Various Artist - TELARC'S Got the Blues
DYEAR=1999
DGENRE=Blues
TTITLE0=Junior Wells - Mystery Train
TTITLE1=Kenny Neal - Blues Fallin' Down Like Rain
TTITLE2=Pinetop Perkins and Hubert Sumlin - Got My Mojo Working
TTITLE3=Luther "Guitar Junior" Johnson - She's Lookin' Good
TTITLE4=The Muddy Waters Tribute Band (featuring Luther "Guitar Junior
TTITLE4=" Johnson) - You Can't Lose What You Never Had (You Can't Spen
TTITLE4=d What You Ain't Got)
TTITLE5=Howlin' Wolf Tribute (featuring Taj Mahal) - Saddle My Pony
TTITLE6=Songs of Willie Dixon (featuring Kenny Neal) - Bring It On Hom
TTITLE6=e
TTITLE7=Maria Muldaur - Fanning the Flames
TTITLE8=Marty Grebb - On the Lookout
TTITLE9=Eddie Kirkland - Gates of Heaven
TTITLE10=Memphis Horns (featuring William Bell) - You Don't Miss Your 
TTITLE10=Water
TTITLE11=Pinetop Perkins - Everyday I Have The Blues
TTITLE12=Tab Benoit, Debbie Davies and Kenny Neal - Deal With It
TTITLE13=Junior Wells - Broke and Hungry
EXTD=YEAR: 1999
EXTT0=
EXTT1=
EXTT2=
EXTT3=
EXTT4=
EXTT5=
EXTT6=
EXTT7=
EXTT8=
EXTT9=
EXTT10=
EXTT11=
EXTT12=
EXTT13=
PLAYORDER=
